<svg width="80" height="28" viewBox="0 0 80 28" fill="none" xmlns="http://www.w3.org/2000/svg">
<path d="M2.33203 10.5L5.83203 7L9.33203 10.5" stroke="#F97316" stroke-width="2" stroke-linecap="round" stroke-linejoin="round"/>
<path d="M15.1654 21H8.16536C7.54653 21 6.95303 20.7542 6.51545 20.3166C6.07786 19.879 5.83203 19.2855 5.83203 18.6667V7" stroke="#F97316" stroke-width="2" stroke-linecap="round" stroke-linejoin="round"/>
<path d="M25.668 17.5L22.168 21L18.668 17.5" stroke="#F97316" stroke-width="2" stroke-linecap="round" stroke-linejoin="round"/>
<path d="M12.832 7H19.832C20.4509 7 21.0444 7.24583 21.4819 7.68342C21.9195 8.121 22.1654 8.71449 22.1654 9.33333V21" stroke="#F97316" stroke-width="2" stroke-linecap="round" stroke-linejoin="round"/>
<path d="M37.2912 21V7.90909H39.6626V19.0121H45.4283V21H37.2912ZM51.6669 21.1918C50.7081 21.1918 49.8771 20.9808 49.174 20.5589C48.4709 20.1371 47.9254 19.5469 47.5376 18.7884C47.1541 18.0298 46.9624 17.1435 46.9624 16.1293C46.9624 15.1151 47.1541 14.2266 47.5376 13.4638C47.9254 12.701 48.4709 12.1087 49.174 11.6868C49.8771 11.2649 50.7081 11.054 51.6669 11.054C52.6257 11.054 53.4567 11.2649 54.1598 11.6868C54.8629 12.1087 55.4063 12.701 55.7898 13.4638C56.1776 14.2266 56.3714 15.1151 56.3714 16.1293C56.3714 17.1435 56.1776 18.0298 55.7898 18.7884C55.4063 19.5469 54.8629 20.1371 54.1598 20.5589C53.4567 20.9808 52.6257 21.1918 51.6669 21.1918ZM51.6797 19.3381C52.1996 19.3381 52.6342 19.1953 52.9837 18.9098C53.3331 18.62 53.593 18.2322 53.7635 17.7464C53.9382 17.2607 54.0256 16.7195 54.0256 16.1229C54.0256 15.522 53.9382 14.9787 53.7635 14.4929C53.593 14.0028 53.3331 13.6129 52.9837 13.3232C52.6342 13.0334 52.1996 12.8885 51.6797 12.8885C51.147 12.8885 50.7038 13.0334 50.3501 13.3232C50.0007 13.6129 49.7386 14.0028 49.5639 14.4929C49.3935 14.9787 49.3082 15.522 49.3082 16.1229C49.3082 16.7195 49.3935 17.2607 49.5639 17.7464C49.7386 18.2322 50.0007 18.62 50.3501 18.9098C50.7038 19.1953 51.147 19.3381 51.6797 19.3381ZM62.6181 21.1918C61.6593 21.1918 60.8283 20.9808 60.1252 20.5589C59.4221 20.1371 58.8766 19.5469 58.4888 18.7884C58.1053 18.0298 57.9135 17.1435 57.9135 16.1293C57.9135 15.1151 58.1053 14.2266 58.4888 13.4638C58.8766 12.701 59.4221 12.1087 60.1252 11.6868C60.8283 11.2649 61.6593 11.054 62.6181 11.054C63.5769 11.054 64.4078 11.2649 65.111 11.6868C65.8141 12.1087 66.3574 12.701 66.7409 13.4638C67.1287 14.2266 67.3226 15.1151 67.3226 16.1293C67.3226 17.1435 67.1287 18.0298 66.7409 18.7884C66.3574 19.5469 65.8141 20.1371 65.111 20.5589C64.4078 20.9808 63.5769 21.1918 62.6181 21.1918ZM62.6309 19.3381C63.1507 19.3381 63.5854 19.1953 63.9348 18.9098C64.2843 18.62 64.5442 18.2322 64.7147 17.7464C64.8894 17.2607 64.9767 16.7195 64.9767 16.1229C64.9767 15.522 64.8894 14.9787 64.7147 14.4929C64.5442 14.0028 64.2843 13.6129 63.9348 13.3232C63.5854 13.0334 63.1507 12.8885 62.6309 12.8885C62.0982 12.8885 61.655 13.0334 61.3013 13.3232C60.9519 13.6129 60.6898 14.0028 60.5151 14.4929C60.3446 14.9787 60.2594 15.522 60.2594 16.1229C60.2594 16.7195 60.3446 17.2607 60.5151 17.7464C60.6898 18.2322 60.9519 18.62 61.3013 18.9098C61.655 19.1953 62.0982 19.3381 62.6309 19.3381ZM69.2866 24.6818V11.1818H71.5621V12.8054H71.6964C71.8157 12.5668 71.984 12.3132 72.2013 12.0447C72.4187 11.772 72.7127 11.5398 73.0835 11.348C73.4542 11.152 73.9272 11.054 74.5025 11.054C75.261 11.054 75.945 11.2479 76.5543 11.6357C77.168 12.0192 77.6538 12.5881 78.0117 13.3423C78.3739 14.0923 78.555 15.0128 78.555 16.1037C78.555 17.1818 78.3782 18.098 78.0245 18.8523C77.6708 19.6065 77.1893 20.1818 76.5799 20.5781C75.9705 20.9744 75.2802 21.1726 74.5089 21.1726C73.9464 21.1726 73.4798 21.0788 73.109 20.8913C72.7383 20.7038 72.44 20.478 72.2141 20.2138C71.9925 19.9453 71.82 19.6918 71.6964 19.4531H71.6005V24.6818H69.2866ZM71.5558 16.0909C71.5558 16.7259 71.6452 17.282 71.8242 17.7592C72.0075 18.2365 72.2695 18.6094 72.6104 18.8778C72.9556 19.142 73.3732 19.2741 73.8633 19.2741C74.3746 19.2741 74.8029 19.1378 75.1481 18.8651C75.4933 18.5881 75.7532 18.2109 75.9279 17.7337C76.1069 17.2521 76.1964 16.7045 76.1964 16.0909C76.1964 15.4815 76.109 14.9403 75.9343 14.4673C75.7596 13.9943 75.4996 13.6236 75.1545 13.3551C74.8093 13.0866 74.3789 12.9524 73.8633 12.9524C73.369 12.9524 72.9492 13.0824 72.604 13.3423C72.2589 13.6023 71.9968 13.9666 71.8178 14.4354C71.6431 14.9041 71.5558 15.456 71.5558 16.0909Z" fill="#F97316"/>
</svg>
